<svg width="244" height="32" viewBox="0 0 244 32" fill="none" xmlns="http://www.w3.org/2000/svg">
<path fill-rule="evenodd" clip-rule="evenodd" d="M6 12.4502C6.55228 12.4502 7 12.8979 7 13.4502V26.0002H25V13.4502C25 12.8979 25.4477 12.4502 26 12.4502C26.5523 12.4502 27 12.8979 27 13.4502V26.0002C27 26.5306 26.7893 27.0393 26.4142 27.4144C26.0391 27.7895 25.5304 28.0002 25 28.0002H7C6.46957 28.0002 5.96086 27.7895 5.58579 27.4144C5.21071 27.0393 5 26.5306 5 26.0002V13.4502C5 12.8979 5.44772 12.4502 6 12.4502Z" fill="#A259FF"/>
<path fill-rule="evenodd" clip-rule="evenodd" d="M3 5C3 4.44772 3.44772 4 4 4H28C28.5523 4 29 4.44772 29 5C29 5.55228 28.5523 6 28 6H4C3.44772 6 3 5.55228 3 5Z" fill="#A259FF"/>
<path fill-rule="evenodd" clip-rule="evenodd" d="M4 7C4.55228 7 5 7.44772 5 8V10C5 10.7956 5.31607 11.5587 5.87868 12.1213C6.44129 12.6839 7.20435 13 8 13C8.79565 13 9.55871 12.6839 10.1213 12.1213C10.6839 11.5587 11 10.7956 11 10V8C11 7.44772 11.4477 7 12 7C12.5523 7 13 7.44772 13 8V10C13 11.3261 12.4732 12.5979 11.5355 13.5355C10.5979 14.4732 9.32608 15 8 15C6.67392 15 5.40215 14.4732 4.46447 13.5355C3.52678 12.5979 3 11.3261 3 10V8C3 7.44772 3.44772 7 4 7Z" fill="#A259FF"/>
<path fill-rule="evenodd" clip-rule="evenodd" d="M12 7C12.5523 7 13 7.44772 13 8V10C13 10.7956 13.3161 11.5587 13.8787 12.1213C14.4413 12.6839 15.2044 13 16 13C16.7956 13 17.5587 12.6839 18.1213 12.1213C18.6839 11.5587 19 10.7956 19 10V8C19 7.44772 19.4477 7 20 7C20.5523 7 21 7.44772 21 8V10C21 11.3261 20.4732 12.5979 19.5355 13.5355C18.5979 14.4732 17.3261 15 16 15C14.6739 15 13.4021 14.4732 12.4645 13.5355C11.5268 12.5979 11 11.3261 11 10V8C11 7.44772 11.4477 7 12 7Z" fill="#A259FF"/>
<path fill-rule="evenodd" clip-rule="evenodd" d="M20 7C20.5523 7 21 7.44772 21 8V10C21 10.7956 21.3161 11.5587 21.8787 12.1213C22.4413 12.6839 23.2044 13 24 13C24.7956 13 25.5587 12.6839 26.1213 12.1213C26.6839 11.5587 27 10.7956 27 10V8C27 7.44772 27.4477 7 28 7C28.5523 7 29 7.44772 29 8V10C29 11.3261 28.4732 12.5979 27.5355 13.5355C26.5979 14.4732 25.3261 15 24 15C22.6739 15 21.4021 14.4732 20.4645 13.5355C19.5268 12.5979 19 11.3261 19 10V8C19 7.44772 19.4477 7 20 7Z" fill="#A259FF"/>
<path d="M51.48 21.948H51.876V8H54.78V23.4H49.104L47.3 9.452H46.904V23.4H44V8H49.676L51.48 21.948Z" fill="white"/>
<path d="M58.0647 8H67.9207V10.772H60.9687V14.292H67.7887V17.064H60.9687V23.4H58.0647V8Z" fill="white"/>
<path d="M70.7874 8H81.8754V10.772H77.7834V23.4H74.8794V10.772H70.7874V8Z" fill="white"/>
<path d="M97.0248 8H102.129L103.009 19.572V21.816H103.537V19.572L104.417 8H109.521V23.4H106.881V13.104L107.145 9.584H106.617L105.473 23.4H101.117L99.9288 9.584H99.4008L99.6648 13.104V23.4H97.0248V8Z" fill="white"/>
<path d="M118.79 21.816C118.496 22.5053 118.086 22.9967 117.558 23.29C117.03 23.5687 116.414 23.708 115.71 23.708C115.05 23.708 114.426 23.5833 113.84 23.334C113.268 23.0847 112.762 22.718 112.322 22.234C111.882 21.75 111.53 21.1633 111.266 20.474C111.016 19.7847 110.892 19 110.892 18.12V17.768C110.892 16.9027 111.016 16.1253 111.266 15.436C111.515 14.7467 111.852 14.16 112.278 13.676C112.703 13.192 113.194 12.8253 113.752 12.576C114.324 12.312 114.932 12.18 115.578 12.18C116.355 12.18 116.978 12.312 117.448 12.576C117.932 12.84 118.313 13.2507 118.592 13.808H118.988V12.488H121.76V20.1C121.76 20.54 121.958 20.76 122.354 20.76H122.772V23.4H120.88C120.381 23.4 119.97 23.2533 119.648 22.96C119.34 22.6667 119.186 22.2853 119.186 21.816H118.79ZM116.326 21.068C117.132 21.068 117.778 20.804 118.262 20.276C118.746 19.7333 118.988 19 118.988 18.076V17.812C118.988 16.888 118.746 16.162 118.262 15.634C117.778 15.0913 117.132 14.82 116.326 14.82C115.519 14.82 114.874 15.0913 114.39 15.634C113.906 16.162 113.664 16.888 113.664 17.812V18.076C113.664 19 113.906 19.7333 114.39 20.276C114.874 20.804 115.519 21.068 116.326 21.068Z" fill="white"/>
<path d="M124.67 12.488H129.29V14.072H129.686C129.892 13.4707 130.236 13.0087 130.72 12.686C131.219 12.3487 131.813 12.18 132.502 12.18C133.588 12.18 134.46 12.5247 135.12 13.214C135.78 13.8887 136.11 14.9227 136.11 16.316V16.8L133.25 17.064V16.756C133.25 16.1547 133.096 15.678 132.788 15.326C132.48 14.9593 132.018 14.776 131.402 14.776C130.786 14.776 130.302 14.9887 129.95 15.414C129.598 15.8393 129.422 16.448 129.422 17.24V20.76H131.93V23.4H124.406V20.76H126.65V15.128H124.67V12.488Z" fill="white"/>
<path d="M142.321 16.492H142.849L145.753 12.488H148.789V12.62L145.269 17.614V18.01L149.141 23.268V23.4H145.973L142.849 19.132H142.321V23.4H139.549V8H142.321V16.492Z" fill="white"/>
<path d="M154.582 18.846C154.596 19.1687 154.67 19.4693 154.802 19.748C154.948 20.012 155.139 20.2467 155.374 20.452C155.623 20.6427 155.902 20.7967 156.21 20.914C156.532 21.0167 156.87 21.068 157.222 21.068C157.911 21.068 158.439 20.9507 158.806 20.716C159.172 20.4667 159.436 20.1733 159.598 19.836L161.974 21.156C161.842 21.4347 161.658 21.728 161.424 22.036C161.189 22.3293 160.881 22.6007 160.5 22.85C160.133 23.0993 159.678 23.3047 159.136 23.466C158.608 23.6273 157.984 23.708 157.266 23.708C156.444 23.708 155.696 23.576 155.022 23.312C154.347 23.048 153.76 22.6667 153.262 22.168C152.778 21.6693 152.396 21.0607 152.118 20.342C151.854 19.6233 151.722 18.8093 151.722 17.9V17.768C151.722 16.932 151.861 16.1693 152.14 15.48C152.433 14.7907 152.829 14.204 153.328 13.72C153.826 13.236 154.406 12.862 155.066 12.598C155.74 12.3193 156.459 12.18 157.222 12.18C158.16 12.18 158.967 12.3487 159.642 12.686C160.316 13.0087 160.874 13.4267 161.314 13.94C161.754 14.4387 162.076 14.996 162.282 15.612C162.487 16.2133 162.59 16.8 162.59 17.372V18.846H154.582ZM157.2 14.688C156.496 14.688 155.924 14.8713 155.484 15.238C155.044 15.59 154.758 16.0007 154.626 16.47H159.774C159.686 15.9567 159.407 15.5313 158.938 15.194C158.483 14.8567 157.904 14.688 157.2 14.688Z" fill="white"/>
<path d="M165.302 12.488H168.536V8H171.308V12.488H175.246V15.128H171.308V20.1C171.308 20.54 171.506 20.76 171.902 20.76H174.85V23.4H170.23C169.732 23.4 169.321 23.2387 168.998 22.916C168.69 22.5933 168.536 22.1827 168.536 21.684V15.128H165.302V12.488Z" fill="white"/>
<path d="M181.281 27.8H178.509V12.488H181.281V14.072H181.677C181.97 13.4707 182.396 13.0087 182.953 12.686C183.51 12.3487 184.222 12.18 185.087 12.18C185.732 12.18 186.341 12.3047 186.913 12.554C187.5 12.8033 188.006 13.17 188.431 13.654C188.871 14.1233 189.216 14.7027 189.465 15.392C189.729 16.0813 189.861 16.866 189.861 17.746V18.142C189.861 19.0367 189.736 19.8287 189.487 20.518C189.238 21.2073 188.9 21.794 188.475 22.278C188.05 22.7473 187.544 23.1067 186.957 23.356C186.385 23.5907 185.762 23.708 185.087 23.708C184.588 23.708 184.156 23.6567 183.789 23.554C183.422 23.4513 183.1 23.312 182.821 23.136C182.557 22.96 182.33 22.762 182.139 22.542C181.963 22.3073 181.809 22.0653 181.677 21.816H181.281V27.8ZM184.185 21.068C185.05 21.068 185.747 20.804 186.275 20.276C186.818 19.7333 187.089 19 187.089 18.076V17.812C187.089 16.888 186.818 16.162 186.275 15.634C185.747 15.0913 185.05 14.82 184.185 14.82C183.32 14.82 182.616 15.0987 182.073 15.656C181.545 16.1987 181.281 16.9173 181.281 17.812V18.076C181.281 18.9707 181.545 19.6967 182.073 20.254C182.616 20.7967 183.32 21.068 184.185 21.068Z" fill="white"/>
<path d="M192.486 20.76H196.314V10.64H192.618V8H199.086V20.76H202.65V23.4H192.486V20.76Z" fill="white"/>
<path d="M213.084 21.816C212.791 22.5053 212.38 22.9967 211.852 23.29C211.324 23.5687 210.708 23.708 210.004 23.708C209.344 23.708 208.721 23.5833 208.134 23.334C207.562 23.0847 207.056 22.718 206.616 22.234C206.176 21.75 205.824 21.1633 205.56 20.474C205.311 19.7847 205.186 19 205.186 18.12V17.768C205.186 16.9027 205.311 16.1253 205.56 15.436C205.81 14.7467 206.147 14.16 206.572 13.676C206.998 13.192 207.489 12.8253 208.046 12.576C208.618 12.312 209.227 12.18 209.872 12.18C210.65 12.18 211.273 12.312 211.742 12.576C212.226 12.84 212.608 13.2507 212.886 13.808H213.282V12.488H216.054V20.1C216.054 20.54 216.252 20.76 216.648 20.76H217.066V23.4H215.174C214.676 23.4 214.265 23.2533 213.942 22.96C213.634 22.6667 213.48 22.2853 213.48 21.816H213.084ZM210.62 21.068C211.427 21.068 212.072 20.804 212.556 20.276C213.04 19.7333 213.282 19 213.282 18.076V17.812C213.282 16.888 213.04 16.162 212.556 15.634C212.072 15.0913 211.427 14.82 210.62 14.82C209.814 14.82 209.168 15.0913 208.684 15.634C208.2 16.162 207.958 16.888 207.958 17.812V18.076C207.958 19 208.2 19.7333 208.684 20.276C209.168 20.804 209.814 21.068 210.62 21.068Z" fill="white"/>
<path d="M230.141 19.396C229.892 20.6867 229.298 21.728 228.359 22.52C227.435 23.312 226.196 23.708 224.641 23.708C223.834 23.708 223.079 23.5833 222.375 23.334C221.686 23.0847 221.084 22.7253 220.571 22.256C220.058 21.7867 219.654 21.2073 219.361 20.518C219.068 19.8287 218.921 19.044 218.921 18.164V17.9C218.921 17.02 219.068 16.228 219.361 15.524C219.654 14.82 220.058 14.2187 220.571 13.72C221.099 13.2213 221.708 12.84 222.397 12.576C223.101 12.312 223.849 12.18 224.641 12.18C226.166 12.18 227.398 12.576 228.337 13.368C229.29 14.16 229.892 15.2013 230.141 16.492L227.413 17.196C227.325 16.5507 227.046 15.9933 226.577 15.524C226.108 15.0547 225.448 14.82 224.597 14.82C224.201 14.82 223.827 14.8933 223.475 15.04C223.123 15.1867 222.815 15.3993 222.551 15.678C222.287 15.942 222.074 16.272 221.913 16.668C221.766 17.0493 221.693 17.482 221.693 17.966V18.098C221.693 18.582 221.766 19.0147 221.913 19.396C222.074 19.7627 222.287 20.0707 222.551 20.32C222.815 20.5693 223.123 20.76 223.475 20.892C223.827 21.0093 224.201 21.068 224.597 21.068C225.448 21.068 226.093 20.8553 226.533 20.43C226.988 20.0047 227.281 19.4327 227.413 18.714L230.141 19.396Z" fill="white"/>
<path d="M235.406 18.846C235.421 19.1687 235.494 19.4693 235.626 19.748C235.773 20.012 235.963 20.2467 236.198 20.452C236.447 20.6427 236.726 20.7967 237.034 20.914C237.357 21.0167 237.694 21.068 238.046 21.068C238.735 21.068 239.263 20.9507 239.63 20.716C239.997 20.4667 240.261 20.1733 240.422 19.836L242.798 21.156C242.666 21.4347 242.483 21.728 242.248 22.036C242.013 22.3293 241.705 22.6007 241.324 22.85C240.957 23.0993 240.503 23.3047 239.96 23.466C239.432 23.6273 238.809 23.708 238.09 23.708C237.269 23.708 236.521 23.576 235.846 23.312C235.171 23.048 234.585 22.6667 234.086 22.168C233.602 21.6693 233.221 21.0607 232.942 20.342C232.678 19.6233 232.546 18.8093 232.546 17.9V17.768C232.546 16.932 232.685 16.1693 232.964 15.48C233.257 14.7907 233.653 14.204 234.152 13.72C234.651 13.236 235.23 12.862 235.89 12.598C236.565 12.3193 237.283 12.18 238.046 12.18C238.985 12.18 239.791 12.3487 240.466 12.686C241.141 13.0087 241.698 13.4267 242.138 13.94C242.578 14.4387 242.901 14.996 243.106 15.612C243.311 16.2133 243.414 16.8 243.414 17.372V18.846H235.406ZM238.024 14.688C237.32 14.688 236.748 14.8713 236.308 15.238C235.868 15.59 235.582 16.0007 235.45 16.47H240.598C240.51 15.9567 240.231 15.5313 239.762 15.194C239.307 14.8567 238.728 14.688 238.024 14.688Z" fill="white"/>
</svg>
